<mxfile host="app.diagrams.net" agent="Mozilla/5.0 (Windows NT 10.0; Win64; x64) AppleWebKit/537.36 (KHTML, like Gecko) Chrome/125.0.0.0 Safari/537.36" version="24.7.17">
  <diagram name="Page-1" id="yjpt2bn9am510HvSyBFy">
    <mxGraphModel dx="1195" dy="650" grid="1" gridSize="10" guides="1" tooltips="1" connect="1" arrows="1" fold="1" page="1" pageScale="1" pageWidth="850" pageHeight="1100" math="0" shadow="0">
      <root>
        <mxCell id="0" />
        <mxCell id="1" parent="0" />
        <mxCell id="V9rgs4aw34ED6E-Rs0Sx-21" style="edgeStyle=orthogonalEdgeStyle;rounded=0;orthogonalLoop=1;jettySize=auto;html=1;" edge="1" parent="1" source="V9rgs4aw34ED6E-Rs0Sx-1" target="V9rgs4aw34ED6E-Rs0Sx-2">
          <mxGeometry relative="1" as="geometry" />
        </mxCell>
        <mxCell id="V9rgs4aw34ED6E-Rs0Sx-1" value="Start" style="rounded=1;whiteSpace=wrap;html=1;" vertex="1" parent="1">
          <mxGeometry x="365" y="70" width="120" height="60" as="geometry" />
        </mxCell>
        <mxCell id="V9rgs4aw34ED6E-Rs0Sx-20" style="edgeStyle=orthogonalEdgeStyle;rounded=0;orthogonalLoop=1;jettySize=auto;html=1;" edge="1" parent="1" source="V9rgs4aw34ED6E-Rs0Sx-2" target="V9rgs4aw34ED6E-Rs0Sx-6">
          <mxGeometry relative="1" as="geometry" />
        </mxCell>
        <mxCell id="V9rgs4aw34ED6E-Rs0Sx-2" value="int salary&lt;div&gt;int credit&lt;/div&gt;" style="shape=parallelogram;perimeter=parallelogramPerimeter;whiteSpace=wrap;html=1;fixedSize=1;" vertex="1" parent="1">
          <mxGeometry x="365" y="180" width="120" height="60" as="geometry" />
        </mxCell>
        <mxCell id="V9rgs4aw34ED6E-Rs0Sx-12" style="edgeStyle=orthogonalEdgeStyle;rounded=0;orthogonalLoop=1;jettySize=auto;html=1;entryX=0.5;entryY=0;entryDx=0;entryDy=0;" edge="1" parent="1" source="V9rgs4aw34ED6E-Rs0Sx-5" target="V9rgs4aw34ED6E-Rs0Sx-22">
          <mxGeometry relative="1" as="geometry">
            <mxPoint x="610" y="460" as="targetPoint" />
          </mxGeometry>
        </mxCell>
        <mxCell id="V9rgs4aw34ED6E-Rs0Sx-15" style="edgeStyle=orthogonalEdgeStyle;rounded=0;orthogonalLoop=1;jettySize=auto;html=1;entryX=0.403;entryY=-0.01;entryDx=0;entryDy=0;entryPerimeter=0;" edge="1" parent="1" source="V9rgs4aw34ED6E-Rs0Sx-5" target="V9rgs4aw34ED6E-Rs0Sx-9">
          <mxGeometry relative="1" as="geometry">
            <mxPoint x="280" y="460" as="targetPoint" />
            <Array as="points">
              <mxPoint x="280" y="420" />
              <mxPoint x="280" y="479" />
            </Array>
          </mxGeometry>
        </mxCell>
        <mxCell id="V9rgs4aw34ED6E-Rs0Sx-5" value="yearlySalary * 0.6 &amp;lt; credit" style="rhombus;whiteSpace=wrap;html=1;" vertex="1" parent="1">
          <mxGeometry x="340" y="370" width="180" height="100" as="geometry" />
        </mxCell>
        <mxCell id="V9rgs4aw34ED6E-Rs0Sx-19" style="edgeStyle=orthogonalEdgeStyle;rounded=0;orthogonalLoop=1;jettySize=auto;html=1;" edge="1" parent="1">
          <mxGeometry relative="1" as="geometry">
            <mxPoint x="429.83" y="322" as="sourcePoint" />
            <mxPoint x="429.82999999999987" y="370.0042857142857" as="targetPoint" />
            <Array as="points">
              <mxPoint x="429.83" y="324" />
            </Array>
          </mxGeometry>
        </mxCell>
        <mxCell id="V9rgs4aw34ED6E-Rs0Sx-6" value="yearlySlary = 12 * salary" style="rounded=0;whiteSpace=wrap;html=1;" vertex="1" parent="1">
          <mxGeometry x="365" y="280" width="120" height="50" as="geometry" />
        </mxCell>
        <mxCell id="V9rgs4aw34ED6E-Rs0Sx-9" value="successful" style="shape=document;whiteSpace=wrap;html=1;boundedLbl=1;" vertex="1" parent="1">
          <mxGeometry x="230" y="480" width="120" height="80" as="geometry" />
        </mxCell>
        <mxCell id="V9rgs4aw34ED6E-Rs0Sx-17" value="False" style="text;html=1;align=center;verticalAlign=middle;resizable=0;points=[];autosize=1;strokeColor=none;fillColor=none;" vertex="1" parent="1">
          <mxGeometry x="300" y="390" width="50" height="30" as="geometry" />
        </mxCell>
        <mxCell id="V9rgs4aw34ED6E-Rs0Sx-18" value="True" style="text;html=1;align=center;verticalAlign=middle;resizable=0;points=[];autosize=1;strokeColor=none;fillColor=none;" vertex="1" parent="1">
          <mxGeometry x="520" y="388" width="50" height="30" as="geometry" />
        </mxCell>
        <mxCell id="V9rgs4aw34ED6E-Rs0Sx-22" value="unsuccessful" style="shape=document;whiteSpace=wrap;html=1;boundedLbl=1;" vertex="1" parent="1">
          <mxGeometry x="560" y="480" width="120" height="80" as="geometry" />
        </mxCell>
      </root>
    </mxGraphModel>
  </diagram>
</mxfile>
